<svg width="174" height="47" viewBox="0 0 174 47" fill="none" xmlns="http://www.w3.org/2000/svg">
<path d="M20.5069 15.7708L20.9052 13.5049H19.0526L7.80285 18.8967L10.0484 7.37275L11.411 8.20153L8.88081 0L3.32422 28.4168H5.95761L7.04808 22.7931L16.2576 28.4168H18.008L18.473 26.2081L9.63664 20.9161L20.5069 15.7708Z" fill="#339CD5"/>
<path d="M34.1753 13.5041H27.6106C26.1365 13.5041 24.8052 13.9949 23.6521 14.9641C22.5012 15.9322 21.7767 17.1562 21.5004 18.6006L19.5645 28.417H22.1989L24.1119 18.7191C24.2422 17.9943 24.6019 17.3922 25.2107 16.8775C25.8185 16.3638 26.4753 16.1142 27.2186 16.1142H33.7791C34.3723 16.1142 34.855 16.2962 35.2564 16.6695C35.6515 17.0376 35.8433 17.5004 35.8433 18.0848C35.8433 18.247 35.8266 18.4227 35.7943 18.6026L33.8469 28.4181H36.4813L38.3307 18.9406C38.4162 18.534 38.46 18.143 38.46 17.7801C38.46 16.5426 38.0545 15.51 37.2528 14.7104C36.4521 13.9086 35.4159 13.5041 34.1753 13.5041Z" fill="#339CD5"/>
<path d="M52.4323 13.3835H45.6851C44.1902 13.3835 42.8735 13.8567 41.7715 14.7894C40.6717 15.7212 39.9732 16.9326 39.6969 18.3874L38.7483 23.1511C38.6847 23.5536 38.6523 23.9518 38.6523 24.3335C38.6523 25.5595 39.0485 26.5682 39.8314 27.3314C40.6112 28.0926 41.636 28.4774 42.8766 28.4774H49.7457C51.2052 28.4774 52.5 27.9647 53.5936 26.954C54.6768 25.9515 55.3659 24.7089 55.6422 23.2593L56.5909 18.5122C56.6545 18.1129 56.6868 17.7396 56.6868 17.4006C56.6868 16.1808 56.2823 15.194 55.4848 14.4671C54.6956 13.7485 53.6687 13.3835 52.4323 13.3835ZM53.9491 18.0651C53.9491 18.2637 53.9283 18.4748 53.8866 18.69L53.0317 22.9837V22.9858C52.8816 23.7605 52.5303 24.4302 51.9861 24.9772C51.3898 25.5772 50.733 25.8683 49.9772 25.8683H43.2175C42.6358 25.8683 42.1885 25.678 41.8508 25.286C41.5005 24.8804 41.3306 24.3896 41.3306 23.7854C41.3306 23.5681 41.3608 23.3477 41.4233 23.1095L42.2782 18.8159C42.4273 18.0661 42.7932 17.3964 43.3655 16.8266C43.9295 16.265 44.5696 15.9915 45.3244 15.9915H52.0674C52.6668 15.9915 53.1162 16.1798 53.4435 16.5666C53.7834 16.9701 53.9491 17.4599 53.9491 18.0651Z" fill="#339CD5"/>
<path d="M76.9271 23.201C76.7968 23.9258 76.4381 24.5289 75.8304 25.0437C75.2246 25.5574 74.5689 25.8069 73.8277 25.8069H69.4314L71.8427 13.5041H69.2083L66.797 25.8069H62.5894C61.9983 25.8069 61.5166 25.626 61.1184 25.2527C60.7254 24.8856 60.5346 24.4228 60.5346 23.8384C60.5346 23.6689 60.5461 23.488 60.5659 23.3216L62.5018 13.5041H59.8674L57.9533 23.2083C57.8897 23.5889 57.8574 23.9549 57.8574 24.2949C57.8574 25.5386 58.2713 26.5494 59.0886 27.2981C59.8976 28.0406 60.9349 28.417 62.1724 28.417H73.4378C74.914 28.417 76.2682 27.8888 77.4661 26.8437C78.5899 25.8277 79.3113 24.5716 79.6095 23.1105L81.4839 13.5051H78.8505L76.9271 23.201Z" fill="#339CD5"/>
<path d="M105.521 13.3435C105.473 13.2853 105.401 13.2509 105.325 13.2509H102.692C102.57 13.2509 102.466 13.3373 102.442 13.4558L100.516 23.1568C100.397 23.8213 100.067 24.3756 99.5061 24.8508C98.9483 25.324 98.3468 25.5538 97.6681 25.5538H93.5815L95.9334 13.5535C95.948 13.4787 95.9282 13.4028 95.8802 13.3435C95.8312 13.2842 95.7593 13.2509 95.6832 13.2509H93.0487C92.9268 13.2509 92.8225 13.3373 92.7985 13.4558L90.4268 25.5527H86.4288C85.9044 25.5527 85.4801 25.3936 85.1319 25.0681C84.7889 24.7468 84.6284 24.3558 84.6284 23.839C84.6284 23.6789 84.6398 23.5073 84.6544 23.3711L86.5914 13.5535C86.606 13.4787 86.5862 13.4017 86.5382 13.3435C86.4892 13.2853 86.4173 13.2509 86.3412 13.2509H83.7057C83.5838 13.2509 83.4795 13.3373 83.4555 13.4558L81.5404 23.1672C81.4748 23.5614 81.4414 23.9409 81.4414 24.2955C81.4414 25.613 81.8834 26.6862 82.755 27.4848C83.613 28.272 84.7086 28.6703 86.0107 28.6703H97.2761C98.8159 28.6703 100.227 28.1191 101.475 27.0304C102.641 25.977 103.388 24.6751 103.698 23.1579L105.572 13.5525C105.59 13.4797 105.57 13.4017 105.521 13.3435Z" fill="#3D4B52"/>
<path d="M117.332 13.2512H110.112L111.05 8.62161C111.066 8.54674 111.046 8.46979 110.998 8.41052C110.949 8.35125 110.877 8.31693 110.801 8.31693H108.164C108.042 8.31693 107.938 8.40324 107.914 8.52179L104.005 28.4282C103.99 28.5031 104.01 28.579 104.058 28.6383C104.107 28.6975 104.179 28.7308 104.255 28.7308H106.889C107.011 28.7308 107.116 28.6445 107.138 28.526L109.557 16.3666H117.001C117.509 16.3666 117.882 16.5237 118.171 16.8616C118.48 17.2214 118.63 17.6623 118.63 18.2103C118.63 18.383 118.605 18.5525 118.549 18.7636L116.637 28.4272C116.622 28.502 116.642 28.579 116.69 28.6372C116.738 28.6955 116.811 28.7298 116.887 28.7298H119.523C119.644 28.7298 119.749 28.6435 119.773 28.5249L121.686 18.8769C121.773 18.4162 121.818 17.9712 121.818 17.5552C121.818 16.245 121.404 15.1864 120.587 14.4096C119.774 13.6422 118.68 13.2512 117.332 13.2512Z" fill="#3D4B52"/>
<path d="M141.537 17.4142C141.537 16.0863 141.137 15.0141 140.348 14.2259C139.557 13.4377 138.472 13.0384 137.12 13.0384H130.067C128.486 13.0384 127.117 13.5365 125.996 14.5202C124.887 15.4935 124.168 16.7799 123.859 18.3428L122.945 23.0992C122.856 23.5245 122.811 23.9436 122.811 24.346C122.811 25.6604 123.228 26.7325 124.051 27.5322C124.87 28.3298 125.969 28.7333 127.319 28.7333H137.839C137.962 28.7333 138.068 28.6459 138.09 28.5253L138.572 25.9162C138.586 25.8414 138.566 25.7655 138.518 25.7072C138.47 25.65 138.398 25.6157 138.322 25.6157H127.686C127.178 25.6157 126.806 25.4587 126.517 25.1228C126.208 24.7651 126.059 24.3283 126.059 23.7866C126.059 23.5734 126.078 23.3602 126.114 23.1564L126.983 18.6475C127.121 17.9383 127.446 17.3403 127.946 16.8682C128.435 16.4055 129.01 16.1736 129.702 16.1559L136.6 16.0644C137.19 16.0644 137.633 16.209 137.954 16.5064C138.263 16.7923 138.414 17.1989 138.414 17.749C138.414 17.9268 138.388 18.1161 138.333 18.3428C138.172 19.1789 137.845 19.8475 137.36 20.331C136.835 20.8541 136.198 21.1089 135.412 21.1089H130.326C130.203 21.1089 130.098 21.1962 130.076 21.3168L129.593 23.9259C129.58 24.0008 129.599 24.0767 129.647 24.1349C129.695 24.1921 129.767 24.2264 129.843 24.2264H135.016C136.573 24.2264 137.965 23.72 139.154 22.7228C140.34 21.7266 141.088 20.4485 141.377 18.9282C141.482 18.4041 141.537 17.8956 141.537 17.4142Z" fill="#3D4B52"/>
<path d="M172.526 14.2249C171.736 13.4367 170.651 13.0374 169.299 13.0374H162.246C160.665 13.0374 159.296 13.5355 158.175 14.5192C158.161 14.5317 158.146 14.5452 158.131 14.5577L158.358 13.3369C158.371 13.262 158.351 13.1861 158.303 13.1278C158.255 13.0706 158.184 13.0363 158.107 13.0363H148.446C146.906 13.0363 145.531 13.5604 144.359 14.5951C143.197 15.6215 142.464 16.912 142.177 18.4323L140.274 28.4286C140.26 28.5025 140.279 28.5794 140.328 28.6377C140.377 28.6959 140.448 28.7292 140.524 28.7292H143.155C143.277 28.7292 143.382 28.6429 143.405 28.5233L145.288 18.8025C145.427 18.1057 145.776 17.4756 146.322 16.9307C146.846 16.4076 147.423 16.1529 148.086 16.1529H156.839C156.465 16.8069 156.197 17.5401 156.038 18.3397L155.124 23.0961C155.035 23.5214 154.989 23.9405 154.989 24.3429C154.989 25.6574 155.406 26.7295 156.23 27.5291C157.048 28.3267 158.148 28.7302 159.498 28.7302H170.018C170.141 28.7302 170.246 28.6428 170.268 28.5222L170.751 25.9132C170.765 25.8383 170.745 25.7624 170.697 25.7041C170.649 25.647 170.577 25.6126 170.501 25.6126H159.863C159.354 25.6126 158.983 25.4556 158.693 25.1197C158.385 24.762 158.236 24.3253 158.236 23.7835C158.236 23.5703 158.254 23.3571 158.291 23.1533L159.159 18.6444C159.298 17.9352 159.622 17.3373 160.123 16.8652C160.612 16.4024 161.187 16.1705 161.878 16.1529L168.777 16.0613C169.367 16.0613 169.81 16.2059 170.131 16.5033C170.439 16.7893 170.591 17.1959 170.591 17.7459C170.591 17.9238 170.564 18.113 170.509 18.3397C170.349 19.1758 170.021 19.8444 169.537 20.328C169.012 20.851 168.375 21.1058 167.589 21.1058H162.503C162.38 21.1058 162.274 21.1932 162.252 21.3138L161.77 23.9228C161.756 23.9977 161.776 24.0736 161.824 24.1319C161.872 24.189 161.944 24.2234 162.02 24.2234H167.193C168.749 24.2234 170.141 23.7169 171.331 22.7197C172.517 21.7235 173.265 20.4455 173.553 18.9252C173.662 18.4021 173.717 17.8926 173.717 17.4121C173.716 16.0853 173.316 15.0131 172.526 14.2249Z" fill="#3D4B52"/>
<path d="M141.543 39.0785C140.998 39.7129 140.722 40.4293 140.722 41.2113C140.722 41.7937 140.894 42.2772 141.235 42.6495C141.579 43.028 142.052 43.2193 142.64 43.2193H146.713C147.172 43.2193 147.368 43.4044 147.368 43.837C147.368 43.9535 147.351 44.0835 147.318 44.2291C147.157 45.0402 146.761 45.4353 146.105 45.4353H140.2L139.916 46.9442H146.16C146.978 46.9442 147.676 46.5844 148.233 45.8773C148.759 45.2294 149.024 44.488 149.024 43.6758C149.024 43.0966 148.852 42.6141 148.512 42.2419C148.166 41.8654 147.694 41.6741 147.106 41.6741H142.997C142.563 41.6741 142.377 41.489 142.377 41.0564C142.377 40.9399 142.394 40.8099 142.427 40.6644C142.566 39.9635 142.939 39.637 143.604 39.637H149.511L149.794 38.1104H143.551C142.771 38.1115 142.096 38.4369 141.543 39.0785Z" fill="#339CD5"/>
<path d="M160.424 40.5168C160.424 39.8034 160.187 39.2252 159.72 38.7999C159.258 38.3788 158.658 38.1656 157.934 38.1656H153.986C153.111 38.1656 152.341 38.4422 151.696 38.9881C151.051 39.533 150.643 40.2422 150.481 41.0939L149.925 43.8818C149.888 44.1179 149.869 44.3498 149.869 44.5744C149.869 45.2919 150.102 45.8825 150.559 46.3286C151.016 46.7737 151.615 46.9994 152.341 46.9994H156.361C157.216 46.9994 157.973 46.6999 158.613 46.1072C159.247 45.5207 159.65 44.7927 159.812 43.9452L160.366 41.1677C160.405 40.9348 160.424 40.7154 160.424 40.5168ZM158.821 40.9057C158.821 41.0221 158.809 41.1448 158.785 41.2717L158.284 43.7841V43.7851C158.197 44.2385 157.99 44.6305 157.672 44.9508C157.323 45.3012 156.939 45.4728 156.496 45.4728H152.541C152.201 45.4728 151.94 45.3616 151.742 45.1328C151.537 44.8957 151.437 44.6087 151.437 44.2541C151.437 44.1262 151.455 43.9972 151.491 43.8589L151.992 41.3466C152.079 40.9078 152.293 40.5157 152.629 40.183C152.958 39.8544 153.333 39.6942 153.774 39.6942H157.72C158.071 39.6942 158.334 39.8044 158.525 40.0301C158.724 40.2651 158.821 40.5511 158.821 40.9057Z" fill="#339CD5"/>
<path d="M162.743 40.6599L163.176 38.4168C163.252 37.9822 163.466 37.5901 163.811 37.2501C164.153 36.9142 164.522 36.751 164.939 36.751H166.607L166.912 35.2244H165.168C164.304 35.2244 163.533 35.5187 162.876 36.099C162.222 36.6771 161.808 37.404 161.647 38.2598L159.961 46.9979H161.502L162.431 42.1864H165.5L165.805 40.6599H162.743Z" fill="#339CD5"/>
<path d="M168.15 39.7468H170.791L171.072 38.2203H168.45L169.024 35.2264H167.483L165.773 43.8959C165.736 44.1299 165.717 44.3618 165.717 44.5843C165.717 45.2987 165.949 45.8873 166.407 46.3324C166.864 46.7753 167.463 47 168.189 47H169.43L169.737 45.4734H168.414C168.058 45.4734 167.789 45.3621 167.59 45.1323C167.385 44.8952 167.285 44.6082 167.285 44.2547C167.285 44.1278 167.302 43.9989 167.339 43.8585L168.15 39.7468Z" fill="#339CD5"/>
<path d="M164.595 32.6898H0L6.20295 31.653H170.799L164.595 32.6898Z" fill="url(#paint0_linear_385_234)"/>
<defs>
<linearGradient id="paint0_linear_385_234" x1="0" y1="32.1714" x2="170.799" y2="32.1714" gradientUnits="userSpaceOnUse">
<stop stop-color="#339CD5"/>
<stop offset="1" stop-color="#3D4B52"/>
</linearGradient>
</defs>
</svg>
