<svg width="34" height="34" viewBox="0 0 34 34" fill="none" xmlns="http://www.w3.org/2000/svg">
<rect width="34" height="34" rx="8" fill="#005CB9"/>
<path d="M21.6221 21.3257L22.208 21.875C20.3607 24.2757 18.1349 25.4761 15.5308 25.4761C13.8299 25.4761 12.3936 24.9268 11.2217 23.8281C10.652 23.2992 10.2004 22.6237 9.8667 21.8018C9.54118 20.9798 9.37842 20.0399 9.37842 18.9819C9.37842 17.924 9.5778 16.8254 9.97656 15.686C10.3753 14.5386 10.9287 13.4766 11.6367 12.5C12.3447 11.5234 13.1545 10.6527 14.0659 9.8877C14.9774 9.11458 15.9824 8.5083 17.0811 8.06885C18.1797 7.62126 19.3353 7.39746 20.5479 7.39746C21.7604 7.39746 22.8102 7.78402 23.6973 8.55713C24.5843 9.33024 25.0278 10.4126 25.0278 11.8042C25.0278 12.6261 24.8366 13.4928 24.4541 14.4043C24.0798 15.3076 23.5915 16.1296 22.9893 16.8701C22.3952 17.6025 21.6912 18.2088 20.8774 18.689C20.0636 19.1691 19.2539 19.4092 18.4482 19.4092C17.6426 19.4092 17.0037 19.1488 16.5317 18.6279C16.0597 18.1071 15.8237 17.5008 15.8237 16.8091C15.8237 15.6209 16.3161 14.4735 17.3008 13.3667C18.2936 12.2518 19.5672 11.4299 21.1216 10.9009L21.4023 11.5479C20.6211 11.8083 19.8846 12.2437 19.1929 12.854C18.5011 13.4644 17.96 14.1195 17.5693 14.8193C17.1868 15.5111 16.9956 16.1133 16.9956 16.626C16.9956 17.6921 17.5897 18.2251 18.7778 18.2251C19.6079 18.2251 20.438 17.8589 21.2681 17.1265C22.1063 16.394 22.7736 15.5355 23.27 14.5508C23.7746 13.5579 24.0269 12.6058 24.0269 11.6943C24.0269 10.7747 23.7176 10.026 23.0991 9.44824C22.4806 8.8623 21.6587 8.56934 20.6333 8.56934C19.6079 8.56934 18.554 8.87858 17.4717 9.49707C16.3893 10.1156 15.429 10.909 14.5908 11.8774C13.7607 12.8459 13.0771 13.9608 12.54 15.2222C12.0111 16.4754 11.7466 17.7083 11.7466 18.9209C11.7466 20.8822 12.4017 22.3226 13.7119 23.2422C14.4769 23.7793 15.3436 24.0479 16.312 24.0479C17.2886 24.0479 18.2489 23.8118 19.1929 23.3398C20.1369 22.8597 20.9466 22.1883 21.6221 21.3257Z" fill="#F9FAFC"/>
</svg>
