<svg width="24" height="24" viewBox="0 0 24 24" fill="none" xmlns="http://www.w3.org/2000/svg">
<path d="M7.33301 6.5H16.667C17.127 6.50018 17.4998 6.87303 17.5 7.33301V16.667C17.4998 17.127 17.127 17.4998 16.667 17.5H7.33301C6.87303 17.4998 6.50018 17.127 6.5 16.667V7.33301C6.50018 6.87303 6.87303 6.50018 7.33301 6.5ZM12 8.83301C11.724 8.83301 11.5002 9.05702 11.5 9.33301V11.5H9.33301C9.05702 11.5002 8.83301 11.724 8.83301 12C8.83301 12.276 9.05702 12.4998 9.33301 12.5H11.5V14.667C11.5002 14.943 11.724 15.167 12 15.167C12.276 15.167 12.4998 14.943 12.5 14.667V12.5H14.667C14.943 12.4998 15.167 12.276 15.167 12C15.167 11.724 14.943 11.5002 14.667 11.5H12.5V9.33301C12.4998 9.05702 12.276 8.83301 12 8.83301Z" stroke="#333333" stroke-linecap="round" stroke-linejoin="round"/>
</svg>
