<svg width="24" height="24" viewBox="0 0 24 24" fill="none" xmlns="http://www.w3.org/2000/svg">
<rect width="24" height="24" rx="4" fill="#005CB9"/>
<mask id="mask0_622_2810" style="mask-type:alpha" maskUnits="userSpaceOnUse" x="4" y="4" width="16" height="16">
<rect x="4" y="4" width="16" height="16" fill="#D9D9D9"/>
</mask>
<g mask="url(#mask0_622_2810)">
<path d="M10.3335 15L15.0002 12L10.3335 9.00004V15ZM12.0002 18.6667C11.0779 18.6667 10.2113 18.4917 9.40016 18.1417C8.58905 17.7917 7.8835 17.3167 7.2835 16.7167C6.6835 16.1167 6.2085 15.4112 5.8585 14.6C5.5085 13.7889 5.3335 12.9223 5.3335 12C5.3335 11.0778 5.5085 10.2112 5.8585 9.40004C6.2085 8.58893 6.6835 7.88337 7.2835 7.28337C7.8835 6.68337 8.58905 6.20837 9.40016 5.85837C10.2113 5.50837 11.0779 5.33337 12.0002 5.33337C12.9224 5.33337 13.7891 5.50837 14.6002 5.85837C15.4113 6.20837 16.1168 6.68337 16.7168 7.28337C17.3168 7.88337 17.7918 8.58893 18.1418 9.40004C18.4918 10.2112 18.6668 11.0778 18.6668 12C18.6668 12.9223 18.4918 13.7889 18.1418 14.6C17.7918 15.4112 17.3168 16.1167 16.7168 16.7167C16.1168 17.3167 15.4113 17.7917 14.6002 18.1417C13.7891 18.4917 12.9224 18.6667 12.0002 18.6667ZM12.0002 17.3334C13.4891 17.3334 14.7502 16.8167 15.7835 15.7834C16.8168 14.75 17.3335 13.4889 17.3335 12C17.3335 10.5112 16.8168 9.25004 15.7835 8.21671C14.7502 7.18337 13.4891 6.66671 12.0002 6.66671C10.5113 6.66671 9.25016 7.18337 8.21683 8.21671C7.1835 9.25004 6.66683 10.5112 6.66683 12C6.66683 13.4889 7.1835 14.75 8.21683 15.7834C9.25016 16.8167 10.5113 17.3334 12.0002 17.3334Z" fill="white"/>
</g>
</svg>
