<svg width="22" height="22" viewBox="0 0 22 22" fill="none" xmlns="http://www.w3.org/2000/svg">
<path d="M6.1875 8.25C6.36984 8.25 6.5447 8.17757 6.67364 8.04864C6.80257 7.9197 6.875 7.74484 6.875 7.5625C6.875 7.38016 6.80257 7.2053 6.67364 7.07636C6.5447 6.94743 6.36984 6.875 6.1875 6.875C6.00516 6.875 5.8303 6.94743 5.70136 7.07636C5.57243 7.2053 5.5 7.38016 5.5 7.5625C5.5 7.74484 5.57243 7.9197 5.70136 8.04864C5.8303 8.17757 6.00516 8.25 6.1875 8.25ZM8.25 8.25C8.43234 8.25 8.6072 8.17757 8.73614 8.04864C8.86507 7.9197 8.9375 7.74484 8.9375 7.5625C8.9375 7.38016 8.86507 7.2053 8.73614 7.07636C8.6072 6.94743 8.43234 6.875 8.25 6.875C8.06766 6.875 7.8928 6.94743 7.76386 7.07636C7.63493 7.2053 7.5625 7.38016 7.5625 7.5625C7.5625 7.74484 7.63493 7.9197 7.76386 8.04864C7.8928 8.17757 8.06766 8.25 8.25 8.25ZM11 7.5625C11 7.74484 10.9276 7.9197 10.7986 8.04864C10.6697 8.17757 10.4948 8.25 10.3125 8.25C10.1302 8.25 9.9553 8.17757 9.82636 8.04864C9.69743 7.9197 9.625 7.74484 9.625 7.5625C9.625 7.38016 9.69743 7.2053 9.82636 7.07636C9.9553 6.94743 10.1302 6.875 10.3125 6.875C10.4948 6.875 10.6697 6.94743 10.7986 7.07636C10.9276 7.2053 11 7.38016 11 7.5625Z" fill="white"/>
<path d="M16.5 1.375C17.2293 1.375 17.9288 1.66473 18.4445 2.18046C18.9603 2.69618 19.25 3.39565 19.25 4.125C19.9793 4.125 20.6788 4.41473 21.1945 4.93046C21.7103 5.44618 22 6.14565 22 6.875V17.875C22 18.6043 21.7103 19.3038 21.1945 19.8195C20.6788 20.3353 19.9793 20.625 19.25 20.625H5.5C4.77065 20.625 4.07118 20.3353 3.55546 19.8195C3.03973 19.3038 2.75 18.6043 2.75 17.875C2.02065 17.875 1.32118 17.5853 0.805456 17.0695C0.289731 16.5538 0 15.8543 0 15.125V4.125C0 3.39565 0.289731 2.69618 0.805456 2.18046C1.32118 1.66473 2.02065 1.375 2.75 1.375H16.5ZM2.75 16.5V6.875C2.75 6.14565 3.03973 5.44618 3.55546 4.93046C4.07118 4.41473 4.77065 4.125 5.5 4.125H17.875C17.875 3.76033 17.7301 3.41059 17.4723 3.15273C17.2144 2.89487 16.8647 2.75 16.5 2.75H2.75C2.38533 2.75 2.03559 2.89487 1.77773 3.15273C1.51987 3.41059 1.375 3.76033 1.375 4.125V15.125C1.375 15.4897 1.51987 15.8394 1.77773 16.0973C2.03559 16.3551 2.38533 16.5 2.75 16.5ZM4.125 11V17.875C4.125 18.2397 4.26987 18.5894 4.52773 18.8473C4.78559 19.1051 5.13533 19.25 5.5 19.25H19.25C19.6147 19.25 19.9644 19.1051 20.2223 18.8473C20.4801 18.5894 20.625 18.2397 20.625 17.875V11H4.125ZM20.625 9.625V6.875C20.625 6.51033 20.4801 6.16059 20.2223 5.90273C19.9644 5.64487 19.6147 5.5 19.25 5.5H5.5C5.13533 5.5 4.78559 5.64487 4.52773 5.90273C4.26987 6.16059 4.125 6.51033 4.125 6.875V9.625H20.625Z" fill="white"/>
</svg>
