<svg width="22" height="22" viewBox="0 0 22 22" fill="none" xmlns="http://www.w3.org/2000/svg">
<g clip-path="url(#clip0_1272_8360)">
<path fill-rule="evenodd" clip-rule="evenodd" d="M0 14.4375C0 13.8905 0.217298 13.3659 0.604092 12.9791C0.990886 12.5923 1.51549 12.375 2.0625 12.375H3.4375C3.98451 12.375 4.50911 12.5923 4.89591 12.9791C5.2827 13.3659 5.5 13.8905 5.5 14.4375V15.8125C5.5 16.3595 5.2827 16.8841 4.89591 17.2709C4.50911 17.6577 3.98451 17.875 3.4375 17.875H2.0625C1.51549 17.875 0.990886 17.6577 0.604092 17.2709C0.217298 16.8841 0 16.3595 0 15.8125L0 14.4375ZM2.0625 13.75C1.88016 13.75 1.7053 13.8224 1.57636 13.9514C1.44743 14.0803 1.375 14.2552 1.375 14.4375V15.8125C1.375 15.9948 1.44743 16.1697 1.57636 16.2986C1.7053 16.4276 1.88016 16.5 2.0625 16.5H3.4375C3.61984 16.5 3.7947 16.4276 3.92364 16.2986C4.05257 16.1697 4.125 15.9948 4.125 15.8125V14.4375C4.125 14.2552 4.05257 14.0803 3.92364 13.9514C3.7947 13.8224 3.61984 13.75 3.4375 13.75H2.0625ZM16.5 14.4375C16.5 13.8905 16.7173 13.3659 17.1041 12.9791C17.4909 12.5923 18.0155 12.375 18.5625 12.375H19.9375C20.4845 12.375 21.0091 12.5923 21.3959 12.9791C21.7827 13.3659 22 13.8905 22 14.4375V15.8125C22 16.3595 21.7827 16.8841 21.3959 17.2709C21.0091 17.6577 20.4845 17.875 19.9375 17.875H18.5625C18.0155 17.875 17.4909 17.6577 17.1041 17.2709C16.7173 16.8841 16.5 16.3595 16.5 15.8125V14.4375ZM18.5625 13.75C18.3802 13.75 18.2053 13.8224 18.0764 13.9514C17.9474 14.0803 17.875 14.2552 17.875 14.4375V15.8125C17.875 15.9948 17.9474 16.1697 18.0764 16.2986C18.2053 16.4276 18.3802 16.5 18.5625 16.5H19.9375C20.1198 16.5 20.2947 16.4276 20.4236 16.2986C20.5526 16.1697 20.625 15.9948 20.625 15.8125V14.4375C20.625 14.2552 20.5526 14.0803 20.4236 13.9514C20.2947 13.8224 20.1198 13.75 19.9375 13.75H18.5625ZM8.25 6.1875C8.25 5.64049 8.4673 5.11589 8.85409 4.72909C9.24089 4.3423 9.76549 4.125 10.3125 4.125H11.6875C12.2345 4.125 12.7591 4.3423 13.1459 4.72909C13.5327 5.11589 13.75 5.64049 13.75 6.1875V7.5625C13.75 8.10951 13.5327 8.63411 13.1459 9.02091C12.7591 9.4077 12.2345 9.625 11.6875 9.625H10.3125C9.76549 9.625 9.24089 9.4077 8.85409 9.02091C8.4673 8.63411 8.25 8.10951 8.25 7.5625V6.1875ZM10.3125 5.5C10.1302 5.5 9.9553 5.57243 9.82636 5.70136C9.69743 5.8303 9.625 6.00516 9.625 6.1875V7.5625C9.625 7.74484 9.69743 7.9197 9.82636 8.04864C9.9553 8.17757 10.1302 8.25 10.3125 8.25H11.6875C11.8698 8.25 12.0447 8.17757 12.1736 8.04864C12.3026 7.9197 12.375 7.74484 12.375 7.5625V6.1875C12.375 6.00516 12.3026 5.8303 12.1736 5.70136C12.0447 5.57243 11.8698 5.5 11.6875 5.5H10.3125Z" fill="white"/>
<path d="M8.25003 6.1875H2.56578C2.41444 5.92537 2.18083 5.7205 1.90119 5.60467C1.62155 5.48883 1.31149 5.46851 1.01912 5.54685C0.726753 5.62519 0.468402 5.79782 0.284139 6.03795C0.0998765 6.27809 0 6.57232 0 6.875C0 7.17768 0.0998765 7.47191 0.284139 7.71205C0.468402 7.95218 0.726753 8.12481 1.01912 8.20315C1.31149 8.28149 1.62155 8.26117 1.90119 8.14533C2.18083 8.0295 2.41444 7.82463 2.56578 7.5625H6.23428C4.4636 8.6804 3.14035 10.3831 2.49428 12.375H3.43753C3.60666 12.375 3.77303 12.3956 3.92978 12.4341C4.31063 11.4372 4.89754 10.5318 5.65218 9.77715C6.40682 9.02251 7.3122 8.43559 8.30916 8.05475C8.26977 7.89363 8.24992 7.72836 8.25003 7.5625V6.1875ZM13.6909 8.05475C13.7303 7.89364 13.7502 7.72836 13.75 7.5625V6.1875H19.4343C19.5856 5.92537 19.8192 5.7205 20.0989 5.60467C20.3785 5.48883 20.6886 5.46851 20.9809 5.54685C21.2733 5.62519 21.5317 5.79782 21.7159 6.03795C21.9002 6.27809 22.0001 6.57232 22.0001 6.875C22.0001 7.17768 21.9002 7.47191 21.7159 7.71205C21.5317 7.95218 21.2733 8.12481 20.9809 8.20315C20.6886 8.28149 20.3785 8.26117 20.0989 8.14533C19.8192 8.0295 19.5856 7.82463 19.4343 7.5625H15.7658C17.5365 8.6804 18.8597 10.3831 19.5058 12.375H18.5625C18.3934 12.375 18.2284 12.3956 18.0703 12.4341C17.6894 11.4372 17.1025 10.5318 16.3479 9.77715C15.5932 9.02251 14.6879 8.43559 13.6909 8.05475Z" fill="white"/>
</g>
<defs>
<clipPath id="clip0_1272_8360">
<rect width="22" height="22" fill="white"/>
</clipPath>
</defs>
</svg>
