<svg width="22" height="22" viewBox="0 0 22 22" fill="none" xmlns="http://www.w3.org/2000/svg">
<g clip-path="url(#clip0_1793_1704)">
<path fill-rule="evenodd" clip-rule="evenodd" d="M15.8125 2.75C15.5416 2.75 15.2734 2.80335 15.0232 2.907C14.773 3.01065 14.5456 3.16257 14.3541 3.35409C14.1626 3.54561 14.0106 3.77298 13.907 4.02321C13.8033 4.27345 13.75 4.54165 13.75 4.8125C13.75 5.08335 13.8033 5.35155 13.907 5.60178C14.0106 5.85202 14.1626 6.07939 14.3541 6.27091C14.5456 6.46243 14.773 6.61435 15.0232 6.718C15.2734 6.82165 15.5416 6.875 15.8125 6.875C16.3595 6.875 16.8841 6.6577 17.2709 6.27091C17.6577 5.88411 17.875 5.35951 17.875 4.8125C17.875 4.26549 17.6577 3.74088 17.2709 3.35409C16.8841 2.9673 16.3595 2.75 15.8125 2.75ZM12.4438 4.125C12.6015 3.34792 13.0231 2.6493 13.6371 2.14749C14.251 1.64568 15.0196 1.37155 15.8125 1.37155C16.6054 1.37155 17.374 1.64568 17.9879 2.14749C18.6019 2.6493 19.0235 3.34792 19.1812 4.125H22V5.5H19.1812C19.0235 6.27707 18.6019 6.9757 17.9879 7.47751C17.374 7.97932 16.6054 8.25344 15.8125 8.25344C15.0196 8.25344 14.251 7.97932 13.6371 7.47751C13.0231 6.9757 12.6015 6.27707 12.4438 5.5H0V4.125H12.4438ZM6.1875 9.625C5.64049 9.625 5.11589 9.8423 4.72909 10.2291C4.3423 10.6159 4.125 11.1405 4.125 11.6875C4.125 12.2345 4.3423 12.7591 4.72909 13.1459C5.11589 13.5327 5.64049 13.75 6.1875 13.75C6.73451 13.75 7.25911 13.5327 7.64591 13.1459C8.0327 12.7591 8.25 12.2345 8.25 11.6875C8.25 11.1405 8.0327 10.6159 7.64591 10.2291C7.25911 9.8423 6.73451 9.625 6.1875 9.625ZM2.81875 11C2.97654 10.2229 3.39813 9.5243 4.01207 9.02249C4.62602 8.52068 5.39457 8.24655 6.1875 8.24655C6.98043 8.24655 7.74898 8.52068 8.36293 9.02249C8.97687 9.5243 9.39846 10.2229 9.55625 11H22V12.375H9.55625C9.39846 13.1521 8.97687 13.8507 8.36293 14.3525C7.74898 14.8543 6.98043 15.1284 6.1875 15.1284C5.39457 15.1284 4.62602 14.8543 4.01207 14.3525C3.39813 13.8507 2.97654 13.1521 2.81875 12.375H0V11H2.81875ZM15.8125 16.5C15.2655 16.5 14.7409 16.7173 14.3541 17.1041C13.9673 17.4909 13.75 18.0155 13.75 18.5625C13.75 19.1095 13.9673 19.6341 14.3541 20.0209C14.7409 20.4077 15.2655 20.625 15.8125 20.625C16.3595 20.625 16.8841 20.4077 17.2709 20.0209C17.6577 19.6341 17.875 19.1095 17.875 18.5625C17.875 18.0155 17.6577 17.4909 17.2709 17.1041C16.8841 16.7173 16.3595 16.5 15.8125 16.5ZM12.4438 17.875C12.6015 17.0979 13.0231 16.3993 13.6371 15.8975C14.251 15.3957 15.0196 15.1216 15.8125 15.1216C16.6054 15.1216 17.374 15.3957 17.9879 15.8975C18.6019 16.3993 19.0235 17.0979 19.1812 17.875H22V19.25H19.1812C19.0235 20.0271 18.6019 20.7257 17.9879 21.2275C17.374 21.7293 16.6054 22.0034 15.8125 22.0034C15.0196 22.0034 14.251 21.7293 13.6371 21.2275C13.0231 20.7257 12.6015 20.0271 12.4438 19.25H0V17.875H12.4438Z" fill="white"/>
</g>
<defs>
<clipPath id="clip0_1793_1704">
<rect width="22" height="22" fill="white"/>
</clipPath>
</defs>
</svg>
