<svg width="22" height="22" viewBox="0 0 22 22" fill="none" xmlns="http://www.w3.org/2000/svg">
<path d="M4.8125 2.75C5.35951 2.75 5.88412 2.9673 6.27091 3.35409C6.6577 3.74089 6.875 4.26549 6.875 4.8125V6.875H4.8125C4.54165 6.875 4.27345 6.82165 4.02322 6.718C3.77298 6.61435 3.54561 6.46243 3.35409 6.27091C3.16257 6.07939 3.01065 5.85202 2.907 5.60179C2.80335 5.35155 2.75 5.08335 2.75 4.8125C2.75 4.54165 2.80335 4.27345 2.907 4.02322C3.01065 3.77298 3.16257 3.54561 3.35409 3.35409C3.54561 3.16257 3.77298 3.01065 4.02322 2.907C4.27345 2.80335 4.54165 2.75 4.8125 2.75ZM8.25 6.875V4.8125C8.25 4.13263 8.0484 3.46802 7.67068 2.90273C7.29296 2.33743 6.7561 1.89684 6.12798 1.63667C5.49985 1.37649 4.80869 1.30842 4.14188 1.44105C3.47507 1.57369 2.86257 1.90108 2.38182 2.38182C1.90108 2.86257 1.57369 3.47507 1.44105 4.14188C1.30842 4.80869 1.37649 5.49985 1.63667 6.12798C1.89684 6.7561 2.33743 7.29296 2.90273 7.67068C3.46802 8.0484 4.13263 8.25 4.8125 8.25H6.875V13.75H4.8125C4.13263 13.75 3.46802 13.9516 2.90273 14.3293C2.33743 14.707 1.89684 15.2439 1.63667 15.872C1.37649 16.5001 1.30842 17.1913 1.44105 17.8581C1.57369 18.5249 1.90108 19.1374 2.38182 19.6182C2.86257 20.0989 3.47507 20.4263 4.14188 20.559C4.80869 20.6916 5.49985 20.6235 6.12798 20.3633C6.7561 20.1032 7.29296 19.6626 7.67068 19.0973C8.0484 18.532 8.25 17.8674 8.25 17.1875V15.125H13.75V17.1875C13.75 17.8674 13.9516 18.532 14.3293 19.0973C14.707 19.6626 15.2439 20.1032 15.872 20.3633C16.5001 20.6235 17.1913 20.6916 17.8581 20.559C18.5249 20.4263 19.1374 20.0989 19.6182 19.6182C20.0989 19.1374 20.4263 18.5249 20.559 17.8581C20.6916 17.1913 20.6235 16.5001 20.3633 15.872C20.1032 15.2439 19.6626 14.707 19.0973 14.3293C18.532 13.9516 17.8674 13.75 17.1875 13.75H15.125V8.25H17.1875C17.8674 8.25 18.532 8.0484 19.0973 7.67068C19.6626 7.29296 20.1032 6.7561 20.3633 6.12798C20.6235 5.49985 20.6916 4.80869 20.559 4.14188C20.4263 3.47507 20.0989 2.86257 19.6182 2.38182C19.1374 1.90108 18.5249 1.57369 17.8581 1.44105C17.1913 1.30842 16.5001 1.37649 15.872 1.63667C15.2439 1.89684 14.707 2.33743 14.3293 2.90273C13.9516 3.46802 13.75 4.13263 13.75 4.8125V6.875H8.25ZM13.75 8.25V13.75H8.25V8.25H13.75ZM15.125 6.875V4.8125C15.125 4.40458 15.246 4.00581 15.4726 3.66664C15.6992 3.32746 16.0213 3.06311 16.3982 2.907C16.7751 2.75089 17.1898 2.71005 17.5899 2.78963C17.99 2.86921 18.3575 3.06565 18.6459 3.35409C18.9344 3.64254 19.1308 4.01004 19.2104 4.41013C19.29 4.81021 19.2491 5.22491 19.093 5.60179C18.9369 5.97866 18.6725 6.30078 18.3334 6.52741C17.9942 6.75404 17.5954 6.875 17.1875 6.875H15.125ZM15.125 15.125H17.1875C17.5954 15.125 17.9942 15.246 18.3334 15.4726C18.6725 15.6992 18.9369 16.0213 19.093 16.3982C19.2491 16.7751 19.29 17.1898 19.2104 17.5899C19.1308 17.99 18.9344 18.3575 18.6459 18.6459C18.3575 18.9344 17.99 19.1308 17.5899 19.2104C17.1898 19.29 16.7751 19.2491 16.3982 19.093C16.0213 18.9369 15.6992 18.6725 15.4726 18.3334C15.246 17.9942 15.125 17.5954 15.125 17.1875V15.125ZM6.875 15.125V17.1875C6.875 17.5954 6.75404 17.9942 6.52741 18.3334C6.30078 18.6725 5.97866 18.9369 5.60179 19.093C5.22491 19.2491 4.81021 19.29 4.41013 19.2104C4.01004 19.1308 3.64254 18.9344 3.35409 18.6459C3.06565 18.3575 2.86921 17.99 2.78963 17.5899C2.71005 17.1898 2.75089 16.7751 2.907 16.3982C3.06311 16.0213 3.32746 15.6992 3.66664 15.4726C4.00581 15.246 4.40458 15.125 4.8125 15.125H6.875Z" fill="white"/>
</svg>
