<svg width="36" height="36" viewBox="0 0 36 36" fill="none" xmlns="http://www.w3.org/2000/svg">
<path d="M9.75 12V16.5H14.25" stroke="#929292" stroke-linecap="round" stroke-linejoin="round"/>
<path d="M26.25 24V19.5H21.75" stroke="#929292" stroke-linecap="round" stroke-linejoin="round"/>
<path d="M24.3675 15.7499C23.9871 14.675 23.3407 13.714 22.4884 12.9565C21.6361 12.199 20.6059 11.6698 19.4938 11.4181C18.3817 11.1665 17.2239 11.2007 16.1286 11.5175C15.0333 11.8343 14.0361 12.4235 13.23 13.2299L9.75 16.4999M26.25 19.4999L22.77 22.7699C21.9639 23.5764 20.9667 24.1655 19.8714 24.4824C18.7761 24.7992 17.6183 24.8334 16.5062 24.5817C15.3941 24.3301 14.3639 23.8009 13.5116 23.0434C12.6593 22.2859 12.0129 21.3248 11.6325 20.2499" stroke="#929292" stroke-linecap="round" stroke-linejoin="round"/>
</svg>
