<svg width="24" height="24" viewBox="0 0 24 24" fill="none" xmlns="http://www.w3.org/2000/svg">
<rect width="24" height="24" rx="4" fill="#19973C" fill-opacity="0.1"/>
<mask id="mask0_622_2862" style="mask-type:alpha" maskUnits="userSpaceOnUse" x="4" y="4" width="16" height="16">
<rect x="4" y="4" width="16" height="16" fill="#D9D9D9"/>
</mask>
<g mask="url(#mask0_622_2862)">
<path d="M7.33333 17.9993C6.96667 17.9993 6.65278 17.8687 6.39167 17.6076C6.13056 17.3465 6 17.0326 6 16.666V7.33263C6 6.96596 6.13056 6.65207 6.39167 6.39096C6.65278 6.12985 6.96667 5.99929 7.33333 5.99929H13.2833L11.95 7.33263H7.33333V16.666H16.6667V12.0326L18 10.6993V16.666C18 17.0326 17.8694 17.3465 17.6083 17.6076C17.3472 17.8687 17.0333 17.9993 16.6667 17.9993H7.33333ZM10 13.9993V11.166L16.1167 5.04929C16.25 4.91596 16.4 4.81596 16.5667 4.74929C16.7333 4.68263 16.9 4.64929 17.0667 4.64929C17.2444 4.64929 17.4139 4.68263 17.575 4.74929C17.7361 4.81596 17.8833 4.91596 18.0167 5.04929L18.95 5.99929C19.0722 6.13263 19.1667 6.27985 19.2333 6.44096C19.3 6.60207 19.3333 6.76596 19.3333 6.93263C19.3333 7.09929 19.3028 7.26318 19.2417 7.42429C19.1806 7.5854 19.0833 7.73263 18.95 7.86596L12.8333 13.9993H10ZM11.3333 12.666H12.2667L16.1333 8.79929L15.6667 8.33263L15.1833 7.86596L11.3333 11.716V12.666Z" fill="#19973C"/>
</g>
</svg>
