<svg width="48" height="48" viewBox="0 0 48 48" fill="none" xmlns="http://www.w3.org/2000/svg">
<rect width="48" height="48" rx="24" fill="#F9FAFC"/>
<path d="M36 24H29.1L26.8 27.45H22.2L19.9 24H13" stroke="#666666" stroke-width="2" stroke-linecap="round" stroke-linejoin="round"/>
<path d="M16.9675 16.2765L13 24.2V31.1C13 31.71 13.2423 32.295 13.6737 32.7263C14.105 33.1577 14.69 33.4 15.3 33.4H33.7C34.31 33.4 34.895 33.1577 35.3263 32.7263C35.7577 32.295 36 31.71 36 31.1V24.2L32.0325 16.2765C31.8421 15.8933 31.5486 15.5708 31.1849 15.3453C30.8212 15.1198 30.4019 15.0002 29.974 15H19.026C18.5981 15.0002 18.1788 15.1198 17.8151 15.3453C17.4514 15.5708 17.1579 15.8933 16.9675 16.2765Z" stroke="#666666" stroke-width="2" stroke-linecap="round" stroke-linejoin="round"/>
</svg>
