<svg width="22" height="22" viewBox="0 0 22 22" fill="none" xmlns="http://www.w3.org/2000/svg">
<g clip-path="url(#clip0_1272_8408)">
<path d="M0 2.0625C0 1.51549 0.217298 0.990886 0.604092 0.604092C0.990886 0.217298 1.51549 0 2.0625 0L19.9375 0C20.4845 0 21.0091 0.217298 21.3959 0.604092C21.7827 0.990886 22 1.51549 22 2.0625V4.8125C22 5.35951 21.7827 5.88411 21.3959 6.27091C21.0091 6.6577 20.4845 6.875 19.9375 6.875H2.0625C1.51549 6.875 0.990886 6.6577 0.604092 6.27091C0.217298 5.88411 0 5.35951 0 4.8125L0 2.0625ZM2.0625 1.375C1.88016 1.375 1.7053 1.44743 1.57636 1.57636C1.44743 1.7053 1.375 1.88016 1.375 2.0625V4.8125C1.375 4.99484 1.44743 5.1697 1.57636 5.29864C1.7053 5.42757 1.88016 5.5 2.0625 5.5H19.9375C20.1198 5.5 20.2947 5.42757 20.4236 5.29864C20.5526 5.1697 20.625 4.99484 20.625 4.8125V2.0625C20.625 1.88016 20.5526 1.7053 20.4236 1.57636C20.2947 1.44743 20.1198 1.375 19.9375 1.375H2.0625Z" fill="white"/>
<path d="M2.75 3.4375C2.75 3.25516 2.82243 3.0803 2.95136 2.95136C3.0803 2.82243 3.25516 2.75 3.4375 2.75H7.5625C7.74484 2.75 7.9197 2.82243 8.04864 2.95136C8.17757 3.0803 8.25 3.25516 8.25 3.4375C8.25 3.61984 8.17757 3.79471 8.04864 3.92364C7.9197 4.05257 7.74484 4.125 7.5625 4.125H3.4375C3.25516 4.125 3.0803 4.05257 2.95136 3.92364C2.82243 3.79471 2.75 3.61984 2.75 3.4375ZM17.6316 3.88163L17.0871 3.33713C17.0389 3.28905 17.0061 3.22774 16.9928 3.16098C16.9795 3.09422 16.9863 3.02501 17.0123 2.96212C17.0384 2.89923 17.0826 2.8455 17.1392 2.80774C17.1958 2.76997 17.2624 2.74988 17.3305 2.75H18.4195C18.4876 2.74988 18.5542 2.76997 18.6108 2.80774C18.6674 2.8455 18.7116 2.89923 18.7377 2.96212C18.7637 3.02501 18.7705 3.09422 18.7572 3.16098C18.7439 3.22774 18.7111 3.28905 18.6629 3.33713L18.1184 3.88163C18.0864 3.91364 18.0485 3.93904 18.0067 3.95637C17.965 3.97369 17.9202 3.98262 17.875 3.98262C17.8298 3.98262 17.785 3.97369 17.7433 3.95637C17.7015 3.93904 17.6636 3.91364 17.6316 3.88163ZM0 11C0 10.2707 0.289731 9.57118 0.805456 9.05546C1.32118 8.53973 2.02065 8.25 2.75 8.25H19.25C19.9793 8.25 20.6788 8.53973 21.1945 9.05546C21.7103 9.57118 22 10.2707 22 11V17.875C22 18.6043 21.7103 19.3038 21.1945 19.8195C20.6788 20.3353 19.9793 20.625 19.25 20.625H2.75C2.02065 20.625 1.32118 20.3353 0.805456 19.8195C0.289731 19.3038 0 18.6043 0 17.875V11ZM1.375 15.125V17.875C1.375 18.2397 1.51987 18.5894 1.77773 18.8473C2.03559 19.1051 2.38533 19.25 2.75 19.25H19.25C19.6147 19.25 19.9644 19.1051 20.2223 18.8473C20.4801 18.5894 20.625 18.2397 20.625 17.875V15.125H1.375ZM20.625 13.75V11C20.625 10.6353 20.4801 10.2856 20.2223 10.0277C19.9644 9.76987 19.6147 9.625 19.25 9.625H2.75C2.38533 9.625 2.03559 9.76987 1.77773 10.0277C1.51987 10.2856 1.375 10.6353 1.375 11V13.75H20.625ZM2.75 11.6875C2.75 11.5052 2.82243 11.3303 2.95136 11.2014C3.0803 11.0724 3.25516 11 3.4375 11H15.8125C15.9948 11 16.1697 11.0724 16.2986 11.2014C16.4276 11.3303 16.5 11.5052 16.5 11.6875C16.5 11.8698 16.4276 12.0447 16.2986 12.1736C16.1697 12.3026 15.9948 12.375 15.8125 12.375H3.4375C3.25516 12.375 3.0803 12.3026 2.95136 12.1736C2.82243 12.0447 2.75 11.8698 2.75 11.6875ZM2.75 17.1875C2.75 17.0052 2.82243 16.8303 2.95136 16.7014C3.0803 16.5724 3.25516 16.5 3.4375 16.5H11.6875C11.8698 16.5 12.0447 16.5724 12.1736 16.7014C12.3026 16.8303 12.375 17.0052 12.375 17.1875C12.375 17.3698 12.3026 17.5447 12.1736 17.6736C12.0447 17.8026 11.8698 17.875 11.6875 17.875H3.4375C3.25516 17.875 3.0803 17.8026 2.95136 17.6736C2.82243 17.5447 2.75 17.3698 2.75 17.1875Z" fill="white"/>
</g>
<defs>
<clipPath id="clip0_1272_8408">
<rect width="22" height="22" fill="white"/>
</clipPath>
</defs>
</svg>
