<svg width="22" height="22" viewBox="0 0 22 22" fill="none" xmlns="http://www.w3.org/2000/svg">
<g clip-path="url(#clip0_1793_868)">
<path d="M2.0625 0C1.51549 0 0.990886 0.217298 0.604092 0.604092C0.217298 0.990886 0 1.51549 0 2.0625L0 17.875C0 18.2397 0.144866 18.5894 0.402728 18.8473C0.660591 19.1051 1.01033 19.25 1.375 19.25V2.0625C1.375 1.88016 1.44743 1.7053 1.57636 1.57636C1.7053 1.44743 1.88016 1.375 2.0625 1.375H19.25C19.25 1.01033 19.1051 0.660591 18.8473 0.402728C18.5894 0.144866 18.2397 0 17.875 0L2.0625 0Z" fill="white"/>
<path d="M4.8125 2.75C4.26549 2.75 3.74089 2.9673 3.35409 3.35409C2.9673 3.74089 2.75 4.26549 2.75 4.8125V19.9375C2.75 20.4845 2.9673 21.0091 3.35409 21.3959C3.74089 21.7827 4.26549 22 4.8125 22H13.1808C13.7276 21.9995 14.2518 21.7819 14.6383 21.395L21.3964 14.6383C21.7828 14.2516 21.9999 13.7274 22 13.1808V4.8125C22 4.26549 21.7827 3.74089 21.3959 3.35409C21.0091 2.9673 20.4845 2.75 19.9375 2.75H4.8125ZM4.125 4.8125C4.125 4.63016 4.19743 4.4553 4.32636 4.32636C4.4553 4.19743 4.63016 4.125 4.8125 4.125H19.9375C20.1198 4.125 20.2947 4.19743 20.4236 4.32636C20.5526 4.4553 20.625 4.63016 20.625 4.8125V12.375H14.4375C13.8905 12.375 13.3659 12.5923 12.9791 12.9791C12.5923 13.3659 12.375 13.8905 12.375 14.4375V20.625H4.8125C4.63016 20.625 4.4553 20.5526 4.32636 20.4236C4.19743 20.2947 4.125 20.1198 4.125 19.9375V4.8125ZM13.75 20.3404V14.4375C13.75 14.2552 13.8224 14.0803 13.9514 13.9514C14.0803 13.8224 14.2552 13.75 14.4375 13.75H20.3404L13.75 20.3404Z" fill="white"/>
</g>
<defs>
<clipPath id="clip0_1793_868">
<rect width="22" height="22" fill="white"/>
</clipPath>
</defs>
</svg>
