<svg width="22" height="22" viewBox="0 0 22 22" fill="none" xmlns="http://www.w3.org/2000/svg">
<g clip-path="url(#clip0_1164_9129)">
<path d="M10.3125 1.39975C8.53046 1.52745 6.81914 2.14864 5.37011 3.19375C3.92108 4.23887 2.79153 5.66667 2.10793 7.31732C1.42432 8.96797 1.21363 10.7763 1.49945 12.5399C1.78526 14.3035 2.5563 15.9527 3.72625 17.303L10.3125 10.7154V1.39975ZM11.6875 1.39975V10.3125H20.6003C20.4346 8.00348 19.4424 5.83149 17.8054 4.19457C16.1685 2.55764 13.9965 1.56543 11.6875 1.39975V1.39975ZM20.6003 11.6875H11.2846L4.69838 18.2737C6.04865 19.4433 7.69777 20.214 9.46116 20.4996C11.2245 20.7852 13.0326 20.5744 14.683 19.8908C16.3334 19.2073 17.761 18.0779 18.8061 16.6291C19.8511 15.1803 20.4724 13.4693 20.6003 11.6875V11.6875ZM0 11C0 8.08262 1.15893 5.28473 3.22183 3.22183C5.28473 1.15893 8.08262 0 11 0C13.9174 0 16.7153 1.15893 18.7782 3.22183C20.8411 5.28473 22 8.08262 22 11C22 13.9174 20.8411 16.7153 18.7782 18.7782C16.7153 20.8411 13.9174 22 11 22C8.08262 22 5.28473 20.8411 3.22183 18.7782C1.15893 16.7153 0 13.9174 0 11V11Z" fill="white"/>
</g>
<defs>
<clipPath id="clip0_1164_9129">
<rect width="22" height="22" fill="white"/>
</clipPath>
</defs>
</svg>
