<svg width="24" height="24" viewBox="0 0 24 24" fill="none" xmlns="http://www.w3.org/2000/svg">
<rect width="24" height="24" rx="4" fill="#19973C"/>
<mask id="mask0_622_2745" style="mask-type:alpha" maskUnits="userSpaceOnUse" x="4" y="4" width="16" height="16">
<rect x="4" y="4" width="16" height="16" fill="#D9D9D9"/>
</mask>
<g mask="url(#mask0_622_2745)">
<path d="M13.3333 17.816V16.4493C14.3333 16.1604 15.1389 15.6048 15.75 14.7826C16.3611 13.9604 16.6667 13.0271 16.6667 11.9826C16.6667 10.9382 16.3611 10.0048 15.75 9.18263C15.1389 8.3604 14.3333 7.80485 13.3333 7.51596V6.14929C14.7111 6.4604 15.8333 7.15763 16.7 8.24096C17.5667 9.32429 18 10.5715 18 11.9826C18 13.3937 17.5667 14.641 16.7 15.7243C15.8333 16.8076 14.7111 17.5048 13.3333 17.816ZM6 13.9993V9.99929H8.66667L12 6.66596V17.3326L8.66667 13.9993H6ZM13.3333 14.666V9.29929C13.8556 9.54374 14.2639 9.9104 14.5583 10.3993C14.8528 10.8882 15 11.4215 15 11.9993C15 12.566 14.8528 13.091 14.5583 13.5743C14.2639 14.0576 13.8556 14.4215 13.3333 14.666ZM10.6667 9.89929L9.23333 11.3326H7.33333V12.666H9.23333L10.6667 14.0993V9.89929Z" fill="white"/>
</g>
</svg>
